<svg width="30" height="30" viewBox="0 0 30 30" fill="none" xmlns="http://www.w3.org/2000/svg">
<path d="M16.8187 9.31883C17.0829 9.06737 17.4343 8.92836 17.799 8.93112C18.1637 8.93387 18.513 9.07819 18.7733 9.33362C19.0336 9.58905 19.1845 9.9356 19.1941 10.3002C19.2038 10.6647 19.0714 11.0188 18.825 11.2876L11.3437 20.6438C11.2151 20.7824 11.0598 20.8936 10.8872 20.9708C10.7146 21.0479 10.5282 21.0895 10.3392 21.093C10.1502 21.0965 9.96237 21.0619 9.78703 20.9911C9.6117 20.9204 9.45242 20.815 9.31874 20.6813L4.35749 15.7201C4.21933 15.5913 4.10851 15.4361 4.03165 15.2636C3.95479 15.0911 3.91346 14.9049 3.91013 14.7161C3.9068 14.5272 3.94153 14.3397 4.01226 14.1646C4.08299 13.9895 4.18826 13.8304 4.32179 13.6969C4.45533 13.5633 4.61439 13.4581 4.78949 13.3874C4.9646 13.3166 5.15215 13.2819 5.34097 13.2852C5.52979 13.2886 5.716 13.3299 5.8885 13.4067C6.061 13.4836 6.21625 13.5944 6.34499 13.7326L10.2712 17.657L16.7812 9.36008C16.7929 9.3456 16.8054 9.33183 16.8187 9.31883ZM15.0937 18.9563L16.8187 20.6813C16.9524 20.8147 17.1115 20.9199 17.2867 20.9904C17.4619 21.061 17.6495 21.0956 17.8383 21.0921C18.0271 21.0886 18.2132 21.0471 18.3857 20.9701C18.5581 20.8931 18.7132 20.7821 18.8419 20.6438L26.3269 11.2876C26.4613 11.1548 26.5676 10.9964 26.6395 10.8216C26.7113 10.6468 26.7472 10.4594 26.745 10.2705C26.7428 10.0815 26.7026 9.89498 26.6267 9.72195C26.5508 9.54892 26.4408 9.39296 26.3033 9.26339C26.1657 9.13381 26.0035 9.03327 25.8263 8.96779C25.6491 8.9023 25.4604 8.8732 25.2717 8.88222C25.083 8.89125 24.898 8.93821 24.7278 9.02032C24.5576 9.10242 24.4058 9.21797 24.2812 9.36008L17.7694 17.657L16.86 16.7457L15.0919 18.9563H15.0937Z" fill="#3BAF77"/>
</svg>
